<svg width="1440" height="1025" viewBox="0 0 1440 1025" fill="none" xmlns="http://www.w3.org/2000/svg">
<rect width="1440" height="730" fill="#0F95EF"/>
<path fill-rule="evenodd" clip-rule="evenodd" d="M0 834.171L48 828.161C96 822.152 192 810.133 288 828.161C384 846.19 480 894.266 576 900.275C672 906.285 768 870.228 864 876.237C960 882.247 1056 930.323 1152 936.332C1248 942.342 1344 906.285 1392 888.256L1440 870.228V726H1392C1344 726 1248 726 1152 726C1056 726 960 726 864 726C768 726 672 726 576 726C480 726 384 726 288 726C192 726 96 726 48 726H0V834.171Z" fill="#5C829B"/>
<path fill-rule="evenodd" clip-rule="evenodd" d="M0 870.254L48 858.233C96 846.212 192 822.169 288 810.148C384 798.127 480 798.127 576 840.201C672 882.275 768 966.424 864 978.445C960 990.466 1056 930.36 1152 882.275C1248 834.191 1344 798.127 1392 780.095L1440 762.064V726H1392C1344 726 1248 726 1152 726C1056 726 960 726 864 726C768 726 672 726 576 726C480 726 384 726 288 726C192 726 96 726 48 726H0V870.254Z" fill="#0099FF" fill-opacity="0.71"/>
<path fill-rule="evenodd" clip-rule="evenodd" d="M0 898L60 934C120 970 240 1042 360 1020C480 999 600 883 720 833C840 783 960 797 1080 811C1200 826 1320 840 1380 847L1440 855V725H1380C1320 725 1200 725 1080 725C960 725 840 725 720 725C600 725 480 725 360 725C240 725 120 725 60 725H0V898Z" fill="#0099FF" fill-opacity="0.44"/>
</svg>
