<svg width="1440" height="993" viewBox="0 0 1440 993" fill="none" xmlns="http://www.w3.org/2000/svg">
<rect width="1440" height="653" fill="#25A6FC"/>
<path fill-rule="evenodd" clip-rule="evenodd" d="M0 856.287L60 833.413C120 811.328 240 765.58 360 782.933C480 799.497 600 879.16 720 884.682C840 890.203 960 822.37 1080 799.497C1200 776.623 1320 799.497 1380 811.328L1440 822.37V652H1380C1320 652 1200 652 1080 652C960 652 840 652 720 652C600 652 480 652 360 652C240 652 120 652 60 652H0V856.287Z" fill="#0099FF" fill-opacity="0.44"/>
<path fill-rule="evenodd" clip-rule="evenodd" d="M0 754.616L60 771.192C120 788.558 240 822.5 360 833.551C480 845.391 600 833.551 720 822.5C840 811.449 960 799.609 1080 828.025C1200 856.442 1320 925.116 1380 959.058L1440 993V652H1380C1320 652 1200 652 1080 652C960 652 840 652 720 652C600 652 480 652 360 652C240 652 120 652 60 652H0V754.616Z" fill="#219DF0" fill-opacity="0.51"/>
<path fill-rule="evenodd" clip-rule="evenodd" d="M0 693.238L60 686.365C120 679.492 240 665.746 360 706.983C480 748.221 600 844.442 720 871.934C840 899.425 960 858.188 1080 830.696C1200 803.204 1320 789.459 1380 782.586L1440 775.713V652H1380C1320 652 1200 652 1080 652C960 652 840 652 720 652C600 652 480 652 360 652C240 652 120 652 60 652H0V693.238Z" fill="url(#paint0_linear_9_12)"/>
<defs>
<linearGradient id="paint0_linear_9_12" x1="720" y1="652" x2="720" y2="881" gradientUnits="userSpaceOnUse">
<stop stop-color="#25A6FC"/>
<stop offset="1" stop-color="#0099FF" stop-opacity="0.42"/>
</linearGradient>
</defs>
</svg>
