<svg width="1440" height="415" viewBox="0 0 1440 415" fill="none" xmlns="http://www.w3.org/2000/svg">
<rect width="1440" height="75" fill="#25A6FC"/>
<path fill-rule="evenodd" clip-rule="evenodd" d="M0 278.287L60 255.413C120 233.328 240 187.58 360 204.933C480 221.497 600 301.16 720 306.682C840 312.203 960 244.37 1080 221.497C1200 198.623 1320 221.497 1380 233.328L1440 244.37V74H1380C1320 74 1200 74 1080 74C960 74 840 74 720 74C600 74 480 74 360 74C240 74 120 74 60 74H0V278.287Z" fill="#0099FF" fill-opacity="0.44"/>
<path fill-rule="evenodd" clip-rule="evenodd" d="M0 176.616L60 193.192C120 210.558 240 244.5 360 255.551C480 267.391 600 255.551 720 244.5C840 233.449 960 221.609 1080 250.025C1200 278.442 1320 347.116 1380 381.058L1440 415V74H1380C1320 74 1200 74 1080 74C960 74 840 74 720 74C600 74 480 74 360 74C240 74 120 74 60 74H0V176.616Z" fill="#219DF0" fill-opacity="0.51"/>
<path fill-rule="evenodd" clip-rule="evenodd" d="M0 115.238L60 108.365C120 101.492 240 87.7459 360 128.983C480 170.221 600 266.442 720 293.934C840 321.425 960 280.188 1080 252.696C1200 225.204 1320 211.459 1380 204.586L1440 197.713V74H1380C1320 74 1200 74 1080 74C960 74 840 74 720 74C600 74 480 74 360 74C240 74 120 74 60 74H0V115.238Z" fill="url(#paint0_linear_9_12)"/>
<defs>
<linearGradient id="paint0_linear_9_12" x1="720" y1="74" x2="720" y2="303" gradientUnits="userSpaceOnUse">
<stop stop-color="#25A6FC"/>
<stop offset="1" stop-color="#0099FF" stop-opacity="0.42"/>
</linearGradient>
</defs>
</svg>
