<?xml version="1.0" standalone="no"?>
<svg xmlns:xlink="http://www.w3.org/1999/xlink" id="wave" style="transform:rotate(180deg); transition: 0.3s" viewBox="0 0 1440 270" version="1.1" xmlns="http://www.w3.org/2000/svg"><defs><linearGradient id="sw-gradient-0" x1="0" x2="0" y1="1" y2="0"><stop stop-color="rgba(238, 238, 238, 0.9294117647058824)" offset="0%"/><stop stop-color="rgba(248.525, 248.525, 248.525, 0.9294117647058824)" offset="100%"/></linearGradient></defs><path style="transform:translate(0, 0px); opacity:1" fill="url(#sw-gradient-0)" d="M0,54L60,72C120,90,240,126,360,135C480,144,600,126,720,99C840,72,960,36,1080,58.5C1200,81,1320,162,1440,166.5C1560,171,1680,99,1800,94.5C1920,90,2040,153,2160,184.5C2280,216,2400,216,2520,180C2640,144,2760,72,2880,58.5C3000,45,3120,90,3240,121.5C3360,153,3480,171,3600,184.5C3720,198,3840,207,3960,207C4080,207,4200,198,4320,193.5C4440,189,4560,189,4680,166.5C4800,144,4920,99,5040,90C5160,81,5280,108,5400,108C5520,108,5640,81,5760,85.5C5880,90,6000,126,6120,157.5C6240,189,6360,216,6480,193.5C6600,171,6720,99,6840,76.5C6960,54,7080,81,7200,90C7320,99,7440,90,7560,108C7680,126,7800,171,7920,193.5C8040,216,8160,216,8280,216C8400,216,8520,216,8580,216L8640,216L8640,270L8580,270C8520,270,8400,270,8280,270C8160,270,8040,270,7920,270C7800,270,7680,270,7560,270C7440,270,7320,270,7200,270C7080,270,6960,270,6840,270C6720,270,6600,270,6480,270C6360,270,6240,270,6120,270C6000,270,5880,270,5760,270C5640,270,5520,270,5400,270C5280,270,5160,270,5040,270C4920,270,4800,270,4680,270C4560,270,4440,270,4320,270C4200,270,4080,270,3960,270C3840,270,3720,270,3600,270C3480,270,3360,270,3240,270C3120,270,3000,270,2880,270C2760,270,2640,270,2520,270C2400,270,2280,270,2160,270C2040,270,1920,270,1800,270C1680,270,1560,270,1440,270C1320,270,1200,270,1080,270C960,270,840,270,720,270C600,270,480,270,360,270C240,270,120,270,60,270L0,270Z"/><defs><linearGradient id="sw-gradient-1" x1="0" x2="0" y1="1" y2="0"><stop stop-color="rgba(238, 238, 238, 0.9294117647058824)" offset="0%"/><stop stop-color="rgba(207.543, 207.543, 207.543, 0.9294117647058824)" offset="100%"/></linearGradient></defs><path style="transform:translate(0, 50px); opacity:0.9" fill="url(#sw-gradient-1)" d="M0,81L60,94.5C120,108,240,135,360,126C480,117,600,72,720,76.5C840,81,960,135,1080,162C1200,189,1320,189,1440,162C1560,135,1680,81,1800,49.5C1920,18,2040,9,2160,18C2280,27,2400,54,2520,94.5C2640,135,2760,189,2880,202.5C3000,216,3120,189,3240,180C3360,171,3480,180,3600,171C3720,162,3840,135,3960,108C4080,81,4200,54,4320,76.5C4440,99,4560,171,4680,171C4800,171,4920,99,5040,58.5C5160,18,5280,9,5400,31.5C5520,54,5640,108,5760,112.5C5880,117,6000,72,6120,63C6240,54,6360,81,6480,85.5C6600,90,6720,72,6840,58.5C6960,45,7080,36,7200,54C7320,72,7440,117,7560,144C7680,171,7800,180,7920,175.5C8040,171,8160,153,8280,148.5C8400,144,8520,153,8580,157.5L8640,162L8640,270L8580,270C8520,270,8400,270,8280,270C8160,270,8040,270,7920,270C7800,270,7680,270,7560,270C7440,270,7320,270,7200,270C7080,270,6960,270,6840,270C6720,270,6600,270,6480,270C6360,270,6240,270,6120,270C6000,270,5880,270,5760,270C5640,270,5520,270,5400,270C5280,270,5160,270,5040,270C4920,270,4800,270,4680,270C4560,270,4440,270,4320,270C4200,270,4080,270,3960,270C3840,270,3720,270,3600,270C3480,270,3360,270,3240,270C3120,270,3000,270,2880,270C2760,270,2640,270,2520,270C2400,270,2280,270,2160,270C2040,270,1920,270,1800,270C1680,270,1560,270,1440,270C1320,270,1200,270,1080,270C960,270,840,270,720,270C600,270,480,270,360,270C240,270,120,270,60,270L0,270Z"/><defs><linearGradient id="sw-gradient-2" x1="0" x2="0" y1="1" y2="0"><stop stop-color="rgba(238, 238, 238, 0.9294117647058824)" offset="0%"/><stop stop-color="rgba(238, 238, 238, 0.9294117647058824)" offset="100%"/></linearGradient></defs><path style="transform:translate(0, 100px); opacity:0.8" fill="url(#sw-gradient-2)" d="M0,189L60,180C120,171,240,153,360,121.5C480,90,600,45,720,31.5C840,18,960,36,1080,76.5C1200,117,1320,180,1440,198C1560,216,1680,189,1800,180C1920,171,2040,180,2160,189C2280,198,2400,207,2520,189C2640,171,2760,126,2880,94.5C3000,63,3120,45,3240,40.5C3360,36,3480,45,3600,72C3720,99,3840,144,3960,148.5C4080,153,4200,117,4320,94.5C4440,72,4560,63,4680,72C4800,81,4920,108,5040,117C5160,126,5280,117,5400,99C5520,81,5640,54,5760,40.5C5880,27,6000,27,6120,58.5C6240,90,6360,153,6480,175.5C6600,198,6720,180,6840,148.5C6960,117,7080,72,7200,67.5C7320,63,7440,99,7560,112.5C7680,126,7800,117,7920,121.5C8040,126,8160,144,8280,126C8400,108,8520,54,8580,27L8640,0L8640,270L8580,270C8520,270,8400,270,8280,270C8160,270,8040,270,7920,270C7800,270,7680,270,7560,270C7440,270,7320,270,7200,270C7080,270,6960,270,6840,270C6720,270,6600,270,6480,270C6360,270,6240,270,6120,270C6000,270,5880,270,5760,270C5640,270,5520,270,5400,270C5280,270,5160,270,5040,270C4920,270,4800,270,4680,270C4560,270,4440,270,4320,270C4200,270,4080,270,3960,270C3840,270,3720,270,3600,270C3480,270,3360,270,3240,270C3120,270,3000,270,2880,270C2760,270,2640,270,2520,270C2400,270,2280,270,2160,270C2040,270,1920,270,1800,270C1680,270,1560,270,1440,270C1320,270,1200,270,1080,270C960,270,840,270,720,270C600,270,480,270,360,270C240,270,120,270,60,270L0,270Z"/></svg>